<svg width="37" height="36" viewBox="0 0 37 36" fill="none" xmlns="http://www.w3.org/2000/svg">
<path d="M18.3594 17.8903L2.86849 8.94641L0 10.6126L18.3594 21.2125L36.6008 10.6126L33.7324 8.95666L18.3594 17.8903Z" fill="#287FE8"/>
<path d="M10.6654 16.7675L23.1955 9.48474L20.327 7.82875L7.79688 15.1115L10.6654 16.7675Z" fill="#287FE8"/>
<path d="M18.3594 3.32222L2.86849 12.2661L0 10.5998L18.3594 0L36.6008 10.5998L33.7324 12.2558L18.3594 3.32222Z" fill="#287FE8"/>
<path d="M18.3594 25.3448L0 15.0782V18.0671L18.3594 28.667L36.6008 18.0671V15.0782L18.3594 25.3448Z" fill="#185EB2"/>
<path d="M18.3594 32.1379L0 21.8739V24.8603L18.3594 35.4601L36.6008 24.8603V21.8739L18.3594 32.1379Z" fill="#10498D"/>
</svg>
